<?xml version="1.0" encoding="utf-8"?>
<!-- Generator: Adobe Illustrator 25.2.1, SVG Export Plug-In . SVG Version: 6.00 Build 0)  -->
<svg version="1.1" id="Layer_1" xmlns="http://www.w3.org/2000/svg" xmlns:xlink="http://www.w3.org/1999/xlink" x="0px" y="0px"
	 viewBox="0 0 100 100" style="enable-background:new 0 0 100 100;" xml:space="preserve">
<style type="text/css">
	.st0{fill-rule:evenodd;clip-rule:evenodd;fill:none;}
	.st1{fill-rule:evenodd;clip-rule:evenodd;fill:#4B5E86;stroke:#4B5E86;stroke-width:0.1741;stroke-miterlimit:10;}
	.st2{fill-rule:evenodd;clip-rule:evenodd;fill:#8C9099;stroke:#8C9099;stroke-width:0.1741;stroke-miterlimit:10;}
</style>
<rect class="st0" width="100" height="100"/>
<g id="Слой_x0020_1">
	<g id="_2112620318000">
		<path class="st1" d="M21.3,71.8c1.7-1.9,0.7-22.2,0.7-26.1l-9.1-13c0,12.6,0,25.2,0,37.8c0.3,1.1,1,1.8,2,2.2
			C16.9,72.7,19.9,73.4,21.3,71.8L21.3,71.8z"/>
		<path class="st1" d="M13.1,27.2l12.8-0.1c3.2,4.6,5.9,9.2,9.7,13.7c3.1-4,8.2-14,13.2-14l29.6,0.4c3.5,0.9,9.4,5.2,7.8,11.7
			c-3.6,6.8-8.2,11.8-13,16.9l-7.8-6.8c3.1-3.6,10.4-11.6,9.7-11.6l-23.8-0.4L35.7,58.3L13.1,27.2L13.1,27.2z"/>
		<path class="st2" d="M51.4,39.8l8.8-0.1l-0.1,24.9c4.8-0.1,13.1,0.5,16.5-0.3c2.5-0.6,3.1-3.3-2.1-6.7c1.9-2.1,3.8-4.3,5.6-6.4
			c5.4,3.5,8.8,9.9,5.8,15.8c-1.9,3.1-4.4,5.4-8.2,6.1c-14.1-0.4-20.2,1.5-24.2-2.3C49.7,67.1,51.5,60.2,51.4,39.8L51.4,39.8z"/>
	</g>
</g>
</svg>
