<?xml version="1.0" encoding="UTF-8"?>
<!DOCTYPE svg PUBLIC "-//W3C//DTD SVG 1.1//EN" "http://www.w3.org/Graphics/SVG/1.1/DTD/svg11.dtd">
<!-- Creator: CorelDRAW 2018 (64-Bit) -->
<svg xmlns="http://www.w3.org/2000/svg" xml:space="preserve" width="210mm" height="297mm" version="1.1" style="shape-rendering:geometricPrecision; text-rendering:geometricPrecision; image-rendering:optimizeQuality; fill-rule:evenodd; clip-rule:evenodd"
viewBox="0 0 21000 29700"
 xmlns:xlink="http://www.w3.org/1999/xlink">
 <defs>
  <style type="text/css">
   <![CDATA[
    .str0 {stroke:#4B5E86;stroke-width:20;stroke-miterlimit:22.9256}
    .str1 {stroke:#8C9099;stroke-width:20;stroke-miterlimit:22.9256}
    .fil0 {fill:#4B5E86}
    .fil1 {fill:#8C9099}
   ]]>
  </style>
 </defs>
 <g id="Слой_x0020_1">
  <metadata id="CorelCorpID_0Corel-Layer"/>
  <g id="_2112620318000">
   <path class="fil0 str0" d="M6644.83 13161.68c193.16,-217.9 85.36,-2549.75 83.8,-2998.83l-1043.49 -1496.58c-1.13,1448.05 -2.25,2896.11 -3.38,4344.16 34.72,122.37 117.4,208.37 228.21,257.97 225.25,2.65 573.62,75.22 734.86,-106.72z"/>
   <path class="fil0 str0" d="M5694.97 8039.53l1471.75 -13.23c371.53,523.65 676.93,1060.54 1114.6,1570.96 353.89,-463.57 940.65,-1612.52 1521.36,-1604.05l3396.61 49.61c396.87,104.72 1078.18,593.1 892.96,1346.05 -411.75,781.07 -942.56,1350.48 -1493.22,1946.34l-897.95 -780.53c359.59,-414.05 1197.07,-1328.29 1114.56,-1329.54l-2735.15 -41.34 -1787.68 2429.21 -2597.84 -3573.48z"/>
   <path class="fil1 str1" d="M10100.23 9489.73l1005.42 -6.61 -9.95 2864.1c552.01,-7.83 1503.28,54.87 1895.2,-33.42 290.17,-65.37 356.5,-377.95 -241.55,-773.56 216.08,-246.94 432.15,-493.89 648.23,-740.83 617.37,404.04 1009.83,1135.51 661.46,1812.4 -220.48,359.39 -507.12,619.57 -939.27,701.14 -1617.82,-46.61 -2325.65,171.66 -2775.75,-261.45 -442.38,-425.68 -231.48,-1214.93 -243.79,-3561.77z"/>
  </g>
 </g>
</svg>
